<?xml version="1.0" encoding="UTF-8"?>
<!DOCTYPE svg PUBLIC "-//W3C//DTD SVG 1.1//EN" "http://www.w3.org/Graphics/SVG/1.1/DTD/svg11.dtd">
<!-- Creator: CorelDRAW X7 -->
<svg xmlns="http://www.w3.org/2000/svg" xml:space="preserve" width="337px" height="338px" version="1.1" style="shape-rendering:geometricPrecision; text-rendering:geometricPrecision; image-rendering:optimizeQuality; fill-rule:evenodd; clip-rule:evenodd"
viewBox="0 0 163 163"
 xmlns:xlink="http://www.w3.org/1999/xlink">
 <defs>
  <style type="text/css">
   <![CDATA[
    .fil0 {fill:white}
   ]]>
  </style>
 </defs>
 <g id="Слой_x0020_1">
  <metadata id="CorelCorpID_0Corel-Layer"/>
  <path class="fil0" d="M67 1c-40,8 -75,46 -65,95 7,39 46,75 94,65 40,-8 74,-44 65,-95 -7,-39 -46,-74 -94,-65zm2 7c-37,6 -68,40 -61,85 5,37 41,69 85,62 37,-6 69,-41 62,-86 -6,-37 -41,-69 -86,-61z"/>
  <path class="fil0" d="M67 85c-10,-3 -44,-13 -53,-12 -3,9 -1,23 3,32 2,7 9,21 15,22 5,0 13,-14 18,-19 4,-5 6,-7 9,-11 4,-3 7,-6 8,-12zm-31 34l28 -33 -42 -9c-1,9 0,16 3,24 2,5 7,15 11,18z"/>
  <path class="fil0" d="M23 49c4,4 43,20 50,20 1,-10 -1,-23 -2,-34 -1,-12 3,-24 -11,-19 -15,5 -37,20 -37,33zm8 1l40 17 -3 -43c-17,1 -32,16 -37,26z"/>
  <path class="fil0" d="M53 143c11,9 47,11 57,0 -1,-6 -23,-43 -28,-46 -7,3 -28,40 -29,46zm6 -6c17,4 28,6 45,-1l-22 -36 -12 17c-4,7 -8,13 -11,20z"/>
  <path class="fil0" d="M93 15l-4 54c7,1 47,-16 51,-20 -1,-12 -32,-38 -47,-34zm-1 51l40 -16c-5,-11 -21,-23 -37,-27l-3 43z"/>
  <path class="fil0" d="M96 86c1,6 30,39 34,41 12,-4 24,-36 19,-53 -7,-3 -48,8 -53,12zm3 1l13 16c5,6 10,11 15,17 7,-10 17,-26 13,-43l-41 10z"/>
  <circle class="fil0" cx="81" cy="68" r="4"/>
  <circle class="fil0" cx="94" cy="77" r="4"/>
  <circle class="fil0" cx="89" cy="91" r="4"/>
  <circle class="fil0" cx="74" cy="91" r="4"/>
  <circle class="fil0" cx="69" cy="77" r="4"/>
 </g>
</svg>
